# xmcd
#
# Track frame offsets:
# 150
# 12715
# 23400
# 37878
# 50338
# 61656
# 72861
# 85747
# 98314
# 110033
# 123072
# 133914
# 145899
# 158695
# 170017
# 183645
# 196765
# 209667
# 219430
# 229142
#
# Disc length: 3278 seconds
#
#
# Revision: 0
# Processed by: cddbd v1.5.1PL0 Copyright (c) Steve Scherf et al.
# Submitted via: FreeRIP 2.60 
#
DISCID=0f0ccc14
DTITLE=Luiz Gonzaga - As 20 mais de Luiz Gonzaga
DYEAR=1998
DGENRE=forro
TTITLE0=Asa branca
TTITLE1=No meu pe de serra
TTITLE2=Vem morena
TTITLE3=Baião
TTITLE4=Boiadeiro
TTITLE5=Cintura fina
TTITLE6=No ceará nao tem disso nao
TTITLE7=Que nem giló
TTITLE8=Assum Preto
TTITLE9=Paraíba
TTITLE10=Sabiá
TTITLE11=Olha pro céu
TTITLE12=Baião da garoa
TTITLE13=O xote das Meninas
TTITLE14=Aproveita gente
TTITLE15=De fiá, paví
TTITLE16=Forro de cabo a rabo
TTITLE17=Pagode russo
TTITLE18=Ovo de codorna
TTITLE19=A vida de viajante
EXTD=by axel
EXTT0=
EXTT1=
EXTT2=
EXTT3=
EXTT4=
EXTT5=
EXTT6=
EXTT7=
EXTT8=
EXTT9=
EXTT10=
EXTT11=
EXTT12=
EXTT13=
EXTT14=
EXTT15=
EXTT16=
EXTT17=
EXTT18=
EXTT19=
PLAYORDER=
